# xmcd
#
# Track frame offsets:
#	150
#	16840
#	30942
#	43980
#	65315
#	79090
#	103835
#	118790
#	135752
#	147402
#	170572
#	181082
#	209930
#	223317
#	238505
#
# Disc length: 3901 seconds
#
# Revision: 1
# Processed by: cddbd v1.5.2PL0 Copyright (c) Steve Scherf et al.
# Submitted via: EasyCDDAExtractor 10.0.3.1
#
DISCID=d70f3b0f
DTITLE=The Young Guns - Blue Tango
DYEAR=2001
DGENRE=Blues
TTITLE0=If You Ever Get Lonesome
TTITLE1=The Life That I Live
TTITLE2=See See Baby
TTITLE3=Caught In A Devils Game
TTITLE4=Flip, Flop, And Fly
TTITLE5=You Better Run
TTITLE6=How Tight Can We Be
TTITLE7=Our Time Is No Time
TTITLE8=Don't Leave Me Baby
TTITLE9=It Ain't Worth Livin
TTITLE10=Tell Me Whats The Reason
TTITLE11=Hey Baby
TTITLE12=Shake Em All Down
TTITLE13=Blue Tango
TTITLE14=Backdoor Business
EXTD=
EXTT0=
EXTT1=
EXTT2=
EXTT3=
EXTT4=
EXTT5=
EXTT6=
EXTT7=
EXTT8=
EXTT9=
EXTT10=
EXTT11=
EXTT12=
EXTT13=
EXTT14=
PLAYORDER=
